<svg width="27" height="28" viewBox="0 0 27 28" fill="none" xmlns="http://www.w3.org/2000/svg">
<mask id="mask0_7505_391" style="mask-type:alpha" maskUnits="userSpaceOnUse" x="3" y="0" width="24" height="17">
<path d="M3.87866 0.452759H26.584V16.1697H3.87866V0.452759Z" fill="white"/>
</mask>
<g mask="url(#mask0_7505_391)">
<path fill-rule="evenodd" clip-rule="evenodd" d="M24.7134 15.3379L23.4192 16.1697L20.7669 11.3652C19.2985 8.70076 16.4951 7.04588 13.4527 7.04588H3.87866L13.2541 1.03136C14.6958 0.1064 16.5883 0.306869 17.8051 1.5133L25.3818 9.02975C27.2285 10.862 26.9027 13.9329 24.7134 15.3379Z" fill="#18981D"/>
</g>
<mask id="mask1_7505_391" style="mask-type:alpha" maskUnits="userSpaceOnUse" x="0" y="8" width="26" height="20">
<path d="M0 8.98016H25.0934V27.9807H0V8.98016Z" fill="white"/>
</mask>
<g mask="url(#mask1_7505_391)">
<path fill-rule="evenodd" clip-rule="evenodd" d="M21.2842 27.9808H10.0199C8.89088 27.9808 7.8641 27.3246 7.38895 26.3015L0.216875 10.8726L0.110079 10.6405C-0.0410642 10.3133 -0.0292986 9.96848 0.101029 9.6766C0.110079 9.65578 0.120487 9.63633 0.130895 9.61551C0.255792 9.3725 0.463501 9.17384 0.725514 9.06841C0.860819 9.01229 1.01015 8.98016 1.16854 8.98016H13.4528C15.7914 8.98016 17.9441 10.2518 19.0731 12.299L21.7869 17.2161L24.6148 22.3392C26.0131 24.8751 24.1803 27.9808 21.2842 27.9808Z" fill="#04A700"/>
</g>
</svg>
